# xmcd
#
# Track frame offsets: 
#        150
#        18497
#        32638
#        49215
#        67688
#        83551
#        96231
#        112737
#        129054
#        145308
#        164474
#        180911
#
# Disc length: 2616 seconds
#
# Revision: 0
# Processed by: cddbd v1.5.2PL0 Copyright (c) Steve Scherf et al.
# Submitted via: ExactAudioCopy v0.95b4
#
DISCID=890a360c
DTITLE=John Denver - Windsong
DYEAR=1975
DGENRE=Country
TTITLE0=Windsong
TTITLE1=Cowboy's Delight
TTITLE2=Spirit
TTITLE3=Looking For Space
TTITLE4=Shipmates And Cheyenne
TTITLE5=Late Nite Radio
TTITLE6=Love Is Everywhere
TTITLE7=Two Shots
TTITLE8=I'm Sorry
TTITLE9=Fly Away
TTITLE10=Calypso
TTITLE11=Song Of Wyoming
EXTD=
EXTT0=
EXTT1=
EXTT2=
EXTT3=
EXTT4=
EXTT5=
EXTT6=
EXTT7=
EXTT8=
EXTT9=
EXTT10=
EXTT11=
PLAYORDER=
